<mxfile host="app.diagrams.net" agent="Mozilla/5.0 (Windows NT 10.0; Win64; x64) AppleWebKit/537.36 (KHTML, like Gecko) Chrome/135.0.0.0 Safari/537.36" version="26.2.12">
  <diagram id="R2lEEEUBdFMjLlhIrx00" name="Page-1">
    <mxGraphModel dx="1958" dy="605" grid="1" gridSize="10" guides="1" tooltips="1" connect="1" arrows="1" fold="1" page="1" pageScale="1" pageWidth="850" pageHeight="1100" math="0" shadow="0" extFonts="Permanent Marker^https://fonts.googleapis.com/css?family=Permanent+Marker">
      <root>
        <mxCell id="0" />
        <mxCell id="1" parent="0" />
        <mxCell id="wQJye9Y6Ir59Oo7eAUUx-1" value="Hospital" style="whiteSpace=wrap;html=1;align=center;" vertex="1" parent="1">
          <mxGeometry x="475" y="100" width="100" height="40" as="geometry" />
        </mxCell>
        <mxCell id="wQJye9Y6Ir59Oo7eAUUx-2" value="Medico" style="whiteSpace=wrap;html=1;align=center;" vertex="1" parent="1">
          <mxGeometry x="495" y="280" width="100" height="40" as="geometry" />
        </mxCell>
        <mxCell id="wQJye9Y6Ir59Oo7eAUUx-3" value="Sala" style="whiteSpace=wrap;html=1;align=center;" vertex="1" parent="1">
          <mxGeometry x="130" y="120" width="100" height="40" as="geometry" />
        </mxCell>
        <mxCell id="wQJye9Y6Ir59Oo7eAUUx-4" value="Paciente" style="whiteSpace=wrap;html=1;align=center;" vertex="1" parent="1">
          <mxGeometry x="90" y="440" width="100" height="40" as="geometry" />
        </mxCell>
        <mxCell id="wQJye9Y6Ir59Oo7eAUUx-5" value="Laboratorio" style="whiteSpace=wrap;html=1;align=center;" vertex="1" parent="1">
          <mxGeometry x="495" y="440" width="100" height="40" as="geometry" />
        </mxCell>
        <mxCell id="wQJye9Y6Ir59Oo7eAUUx-6" value="Diagnostico" style="whiteSpace=wrap;html=1;align=center;" vertex="1" parent="1">
          <mxGeometry x="-30" y="220" width="100" height="40" as="geometry" />
        </mxCell>
        <mxCell id="wQJye9Y6Ir59Oo7eAUUx-7" value="Codigo" style="ellipse;whiteSpace=wrap;html=1;align=center;" vertex="1" parent="1">
          <mxGeometry x="485" y="40" width="100" height="40" as="geometry" />
        </mxCell>
        <mxCell id="wQJye9Y6Ir59Oo7eAUUx-8" value="DirecciÃ³n" style="ellipse;whiteSpace=wrap;html=1;align=center;" vertex="1" parent="1">
          <mxGeometry x="615" y="90" width="100" height="40" as="geometry" />
        </mxCell>
        <mxCell id="wQJye9Y6Ir59Oo7eAUUx-9" value="Nombre" style="ellipse;whiteSpace=wrap;html=1;align=center;" vertex="1" parent="1">
          <mxGeometry x="615" y="40" width="100" height="40" as="geometry" />
        </mxCell>
        <mxCell id="wQJye9Y6Ir59Oo7eAUUx-11" value="Telefono" style="ellipse;whiteSpace=wrap;html=1;align=center;" vertex="1" parent="1">
          <mxGeometry x="375.36" y="40" width="100" height="40" as="geometry" />
        </mxCell>
        <mxCell id="wQJye9Y6Ir59Oo7eAUUx-12" value="Nombre" style="ellipse;whiteSpace=wrap;html=1;align=center;" vertex="1" parent="1">
          <mxGeometry x="-10" y="120" width="100" height="40" as="geometry" />
        </mxCell>
        <mxCell id="wQJye9Y6Ir59Oo7eAUUx-13" value="Codigo" style="ellipse;whiteSpace=wrap;html=1;align=center;" vertex="1" parent="1">
          <mxGeometry x="10" y="60" width="100" height="40" as="geometry" />
        </mxCell>
        <mxCell id="wQJye9Y6Ir59Oo7eAUUx-14" value="Cantidad de camas" style="ellipse;whiteSpace=wrap;html=1;align=center;" vertex="1" parent="1">
          <mxGeometry x="120" y="20" width="100" height="40" as="geometry" />
        </mxCell>
        <mxCell id="wQJye9Y6Ir59Oo7eAUUx-15" value="Especialidad" style="ellipse;whiteSpace=wrap;html=1;align=center;" vertex="1" parent="1">
          <mxGeometry x="615" y="370" width="100" height="40" as="geometry" />
        </mxCell>
        <mxCell id="wQJye9Y6Ir59Oo7eAUUx-16" value="Nombre" style="ellipse;whiteSpace=wrap;html=1;align=center;" vertex="1" parent="1">
          <mxGeometry x="615" y="310" width="100" height="40" as="geometry" />
        </mxCell>
        <mxCell id="wQJye9Y6Ir59Oo7eAUUx-17" value="Cedula de identidad" style="ellipse;whiteSpace=wrap;html=1;align=center;" vertex="1" parent="1">
          <mxGeometry x="615" y="260" width="100" height="40" as="geometry" />
        </mxCell>
        <mxCell id="wQJye9Y6Ir59Oo7eAUUx-18" value="Telefono" style="ellipse;whiteSpace=wrap;html=1;align=center;" vertex="1" parent="1">
          <mxGeometry x="370" y="550" width="100" height="40" as="geometry" />
        </mxCell>
        <mxCell id="wQJye9Y6Ir59Oo7eAUUx-19" value="Direccion" style="ellipse;whiteSpace=wrap;html=1;align=center;" vertex="1" parent="1">
          <mxGeometry x="485" y="550" width="100" height="40" as="geometry" />
        </mxCell>
        <mxCell id="wQJye9Y6Ir59Oo7eAUUx-20" value="Nombre" style="ellipse;whiteSpace=wrap;html=1;align=center;" vertex="1" parent="1">
          <mxGeometry x="615" y="550" width="100" height="40" as="geometry" />
        </mxCell>
        <mxCell id="wQJye9Y6Ir59Oo7eAUUx-21" value="Codigo" style="ellipse;whiteSpace=wrap;html=1;align=center;" vertex="1" parent="1">
          <mxGeometry x="615" y="490" width="100" height="40" as="geometry" />
        </mxCell>
        <mxCell id="wQJye9Y6Ir59Oo7eAUUx-22" value="Complicaciones" style="ellipse;whiteSpace=wrap;html=1;align=center;" vertex="1" parent="1">
          <mxGeometry x="-180" y="220" width="100" height="40" as="geometry" />
        </mxCell>
        <mxCell id="wQJye9Y6Ir59Oo7eAUUx-23" value="Tipo" style="ellipse;whiteSpace=wrap;html=1;align=center;" vertex="1" parent="1">
          <mxGeometry x="-180" y="160" width="100" height="40" as="geometry" />
        </mxCell>
        <mxCell id="wQJye9Y6Ir59Oo7eAUUx-24" value="Cedula de identidad" style="ellipse;whiteSpace=wrap;html=1;align=center;" vertex="1" parent="1">
          <mxGeometry x="110" y="600" width="100" height="40" as="geometry" />
        </mxCell>
        <mxCell id="wQJye9Y6Ir59Oo7eAUUx-25" value="Sexo" style="ellipse;whiteSpace=wrap;html=1;align=center;" vertex="1" parent="1">
          <mxGeometry x="180" y="560" width="100" height="40" as="geometry" />
        </mxCell>
        <mxCell id="wQJye9Y6Ir59Oo7eAUUx-26" value="Fecha de nacimiento" style="ellipse;whiteSpace=wrap;html=1;align=center;" vertex="1" parent="1">
          <mxGeometry x="40" y="560" width="100" height="40" as="geometry" />
        </mxCell>
        <mxCell id="wQJye9Y6Ir59Oo7eAUUx-27" value="Direccion" style="ellipse;whiteSpace=wrap;html=1;align=center;" vertex="1" parent="1">
          <mxGeometry x="-70" y="560" width="100" height="40" as="geometry" />
        </mxCell>
        <mxCell id="wQJye9Y6Ir59Oo7eAUUx-28" value="Nombre" style="ellipse;whiteSpace=wrap;html=1;align=center;" vertex="1" parent="1">
          <mxGeometry x="-70" y="510" width="100" height="40" as="geometry" />
        </mxCell>
        <mxCell id="wQJye9Y6Ir59Oo7eAUUx-29" value="Numero de cama" style="ellipse;whiteSpace=wrap;html=1;align=center;" vertex="1" parent="1">
          <mxGeometry x="-70" y="460" width="100" height="40" as="geometry" />
        </mxCell>
        <mxCell id="wQJye9Y6Ir59Oo7eAUUx-30" value="Numero de registro" style="ellipse;whiteSpace=wrap;html=1;align=center;" vertex="1" parent="1">
          <mxGeometry x="-70" y="410" width="100" height="40" as="geometry" />
        </mxCell>
        <mxCell id="wQJye9Y6Ir59Oo7eAUUx-31" value="" style="endArrow=none;html=1;rounded=0;exitX=0.5;exitY=1;exitDx=0;exitDy=0;" edge="1" parent="1" source="wQJye9Y6Ir59Oo7eAUUx-14" target="wQJye9Y6Ir59Oo7eAUUx-3">
          <mxGeometry width="50" height="50" relative="1" as="geometry">
            <mxPoint x="220" y="320" as="sourcePoint" />
            <mxPoint x="270" y="270" as="targetPoint" />
          </mxGeometry>
        </mxCell>
        <mxCell id="wQJye9Y6Ir59Oo7eAUUx-32" value="" style="endArrow=none;html=1;rounded=0;exitX=0.98;exitY=0.7;exitDx=0;exitDy=0;exitPerimeter=0;entryX=0;entryY=0;entryDx=0;entryDy=0;" edge="1" parent="1" source="wQJye9Y6Ir59Oo7eAUUx-13" target="wQJye9Y6Ir59Oo7eAUUx-3">
          <mxGeometry width="50" height="50" relative="1" as="geometry">
            <mxPoint x="220" y="320" as="sourcePoint" />
            <mxPoint x="270" y="270" as="targetPoint" />
          </mxGeometry>
        </mxCell>
        <mxCell id="wQJye9Y6Ir59Oo7eAUUx-33" value="" style="endArrow=none;html=1;rounded=0;exitX=1;exitY=0.5;exitDx=0;exitDy=0;entryX=0;entryY=0.5;entryDx=0;entryDy=0;" edge="1" parent="1" source="wQJye9Y6Ir59Oo7eAUUx-12" target="wQJye9Y6Ir59Oo7eAUUx-3">
          <mxGeometry width="50" height="50" relative="1" as="geometry">
            <mxPoint x="220" y="320" as="sourcePoint" />
            <mxPoint x="270" y="270" as="targetPoint" />
          </mxGeometry>
        </mxCell>
        <mxCell id="wQJye9Y6Ir59Oo7eAUUx-34" value="" style="endArrow=none;html=1;rounded=0;exitX=1;exitY=0.5;exitDx=0;exitDy=0;entryX=0;entryY=0;entryDx=0;entryDy=0;" edge="1" parent="1" source="wQJye9Y6Ir59Oo7eAUUx-23" target="wQJye9Y6Ir59Oo7eAUUx-6">
          <mxGeometry width="50" height="50" relative="1" as="geometry">
            <mxPoint x="50" y="280" as="sourcePoint" />
            <mxPoint x="100" y="230" as="targetPoint" />
          </mxGeometry>
        </mxCell>
        <mxCell id="wQJye9Y6Ir59Oo7eAUUx-35" value="" style="endArrow=none;html=1;rounded=0;entryX=0;entryY=0.75;entryDx=0;entryDy=0;" edge="1" parent="1" source="wQJye9Y6Ir59Oo7eAUUx-22" target="wQJye9Y6Ir59Oo7eAUUx-6">
          <mxGeometry width="50" height="50" relative="1" as="geometry">
            <mxPoint x="50" y="280" as="sourcePoint" />
            <mxPoint x="100" y="230" as="targetPoint" />
          </mxGeometry>
        </mxCell>
        <mxCell id="wQJye9Y6Ir59Oo7eAUUx-37" value="" style="endArrow=none;html=1;rounded=0;exitX=1;exitY=0.5;exitDx=0;exitDy=0;" edge="1" parent="1" source="wQJye9Y6Ir59Oo7eAUUx-30" target="wQJye9Y6Ir59Oo7eAUUx-4">
          <mxGeometry width="50" height="50" relative="1" as="geometry">
            <mxPoint x="170" y="320" as="sourcePoint" />
            <mxPoint x="220" y="270" as="targetPoint" />
          </mxGeometry>
        </mxCell>
        <mxCell id="wQJye9Y6Ir59Oo7eAUUx-38" value="" style="endArrow=none;html=1;rounded=0;exitX=1;exitY=0.5;exitDx=0;exitDy=0;entryX=0;entryY=0.75;entryDx=0;entryDy=0;" edge="1" parent="1" source="wQJye9Y6Ir59Oo7eAUUx-29" target="wQJye9Y6Ir59Oo7eAUUx-4">
          <mxGeometry width="50" height="50" relative="1" as="geometry">
            <mxPoint x="170" y="320" as="sourcePoint" />
            <mxPoint x="220" y="270" as="targetPoint" />
          </mxGeometry>
        </mxCell>
        <mxCell id="wQJye9Y6Ir59Oo7eAUUx-39" value="" style="endArrow=none;html=1;rounded=0;exitX=0.99;exitY=0.325;exitDx=0;exitDy=0;exitPerimeter=0;entryX=0;entryY=1;entryDx=0;entryDy=0;" edge="1" parent="1" source="wQJye9Y6Ir59Oo7eAUUx-28" target="wQJye9Y6Ir59Oo7eAUUx-4">
          <mxGeometry width="50" height="50" relative="1" as="geometry">
            <mxPoint x="170" y="420" as="sourcePoint" />
            <mxPoint x="220" y="370" as="targetPoint" />
          </mxGeometry>
        </mxCell>
        <mxCell id="wQJye9Y6Ir59Oo7eAUUx-40" value="" style="endArrow=none;html=1;rounded=0;exitX=1;exitY=0;exitDx=0;exitDy=0;" edge="1" parent="1" source="wQJye9Y6Ir59Oo7eAUUx-27" target="wQJye9Y6Ir59Oo7eAUUx-4">
          <mxGeometry width="50" height="50" relative="1" as="geometry">
            <mxPoint x="170" y="420" as="sourcePoint" />
            <mxPoint x="220" y="370" as="targetPoint" />
          </mxGeometry>
        </mxCell>
        <mxCell id="wQJye9Y6Ir59Oo7eAUUx-41" value="" style="endArrow=none;html=1;rounded=0;exitX=0.64;exitY=0.025;exitDx=0;exitDy=0;exitPerimeter=0;entryX=0.5;entryY=1;entryDx=0;entryDy=0;" edge="1" parent="1" source="wQJye9Y6Ir59Oo7eAUUx-26" target="wQJye9Y6Ir59Oo7eAUUx-4">
          <mxGeometry width="50" height="50" relative="1" as="geometry">
            <mxPoint x="170" y="420" as="sourcePoint" />
            <mxPoint x="220" y="370" as="targetPoint" />
          </mxGeometry>
        </mxCell>
        <mxCell id="wQJye9Y6Ir59Oo7eAUUx-42" value="" style="endArrow=none;html=1;rounded=0;exitX=0.5;exitY=0;exitDx=0;exitDy=0;entryX=0.75;entryY=1;entryDx=0;entryDy=0;" edge="1" parent="1" target="wQJye9Y6Ir59Oo7eAUUx-4">
          <mxGeometry width="50" height="50" relative="1" as="geometry">
            <mxPoint x="210" y="560" as="sourcePoint" />
            <mxPoint x="220" y="370" as="targetPoint" />
          </mxGeometry>
        </mxCell>
        <mxCell id="wQJye9Y6Ir59Oo7eAUUx-43" value="" style="endArrow=none;html=1;rounded=0;exitX=0.59;exitY=0.025;exitDx=0;exitDy=0;exitPerimeter=0;entryX=0;entryY=1;entryDx=0;entryDy=0;" edge="1" parent="1" source="wQJye9Y6Ir59Oo7eAUUx-18" target="wQJye9Y6Ir59Oo7eAUUx-5">
          <mxGeometry width="50" height="50" relative="1" as="geometry">
            <mxPoint x="515" y="380" as="sourcePoint" />
            <mxPoint x="565" y="330" as="targetPoint" />
          </mxGeometry>
        </mxCell>
        <mxCell id="wQJye9Y6Ir59Oo7eAUUx-44" value="" style="endArrow=none;html=1;rounded=0;exitX=0.5;exitY=0;exitDx=0;exitDy=0;entryX=0.5;entryY=1;entryDx=0;entryDy=0;" edge="1" parent="1" source="wQJye9Y6Ir59Oo7eAUUx-19" target="wQJye9Y6Ir59Oo7eAUUx-5">
          <mxGeometry width="50" height="50" relative="1" as="geometry">
            <mxPoint x="515" y="380" as="sourcePoint" />
            <mxPoint x="565" y="330" as="targetPoint" />
          </mxGeometry>
        </mxCell>
        <mxCell id="wQJye9Y6Ir59Oo7eAUUx-45" value="" style="endArrow=none;html=1;rounded=0;exitX=0;exitY=0;exitDx=0;exitDy=0;" edge="1" parent="1" source="wQJye9Y6Ir59Oo7eAUUx-20" target="wQJye9Y6Ir59Oo7eAUUx-5">
          <mxGeometry width="50" height="50" relative="1" as="geometry">
            <mxPoint x="515" y="380" as="sourcePoint" />
            <mxPoint x="565" y="330" as="targetPoint" />
          </mxGeometry>
        </mxCell>
        <mxCell id="wQJye9Y6Ir59Oo7eAUUx-46" value="" style="endArrow=none;html=1;rounded=0;exitX=0;exitY=0;exitDx=0;exitDy=0;entryX=1;entryY=0.75;entryDx=0;entryDy=0;" edge="1" parent="1" source="wQJye9Y6Ir59Oo7eAUUx-21" target="wQJye9Y6Ir59Oo7eAUUx-5">
          <mxGeometry width="50" height="50" relative="1" as="geometry">
            <mxPoint x="515" y="380" as="sourcePoint" />
            <mxPoint x="565" y="330" as="targetPoint" />
          </mxGeometry>
        </mxCell>
        <mxCell id="wQJye9Y6Ir59Oo7eAUUx-47" value="" style="endArrow=none;html=1;rounded=0;exitX=0;exitY=0.5;exitDx=0;exitDy=0;entryX=0.75;entryY=1;entryDx=0;entryDy=0;" edge="1" parent="1" source="wQJye9Y6Ir59Oo7eAUUx-15" target="wQJye9Y6Ir59Oo7eAUUx-2">
          <mxGeometry width="50" height="50" relative="1" as="geometry">
            <mxPoint x="515" y="380" as="sourcePoint" />
            <mxPoint x="565" y="330" as="targetPoint" />
          </mxGeometry>
        </mxCell>
        <mxCell id="wQJye9Y6Ir59Oo7eAUUx-48" value="" style="endArrow=none;html=1;rounded=0;exitX=0;exitY=0.5;exitDx=0;exitDy=0;entryX=1;entryY=0.75;entryDx=0;entryDy=0;" edge="1" parent="1" source="wQJye9Y6Ir59Oo7eAUUx-16" target="wQJye9Y6Ir59Oo7eAUUx-2">
          <mxGeometry width="50" height="50" relative="1" as="geometry">
            <mxPoint x="515" y="380" as="sourcePoint" />
            <mxPoint x="565" y="330" as="targetPoint" />
          </mxGeometry>
        </mxCell>
        <mxCell id="wQJye9Y6Ir59Oo7eAUUx-49" value="" style="endArrow=none;html=1;rounded=0;exitX=0;exitY=0.5;exitDx=0;exitDy=0;entryX=1;entryY=0.25;entryDx=0;entryDy=0;" edge="1" parent="1" source="wQJye9Y6Ir59Oo7eAUUx-17" target="wQJye9Y6Ir59Oo7eAUUx-2">
          <mxGeometry width="50" height="50" relative="1" as="geometry">
            <mxPoint x="515" y="380" as="sourcePoint" />
            <mxPoint x="565" y="330" as="targetPoint" />
          </mxGeometry>
        </mxCell>
        <mxCell id="wQJye9Y6Ir59Oo7eAUUx-50" value="" style="endArrow=none;html=1;rounded=0;exitX=1;exitY=1;exitDx=0;exitDy=0;entryX=0;entryY=0;entryDx=0;entryDy=0;" edge="1" parent="1" target="wQJye9Y6Ir59Oo7eAUUx-1">
          <mxGeometry width="50" height="50" relative="1" as="geometry">
            <mxPoint x="460.35533905932743" y="74.14213562373095" as="sourcePoint" />
            <mxPoint x="525" y="210" as="targetPoint" />
          </mxGeometry>
        </mxCell>
        <mxCell id="wQJye9Y6Ir59Oo7eAUUx-51" value="" style="endArrow=none;html=1;rounded=0;exitX=0.37;exitY=0.975;exitDx=0;exitDy=0;exitPerimeter=0;" edge="1" parent="1" source="wQJye9Y6Ir59Oo7eAUUx-7" target="wQJye9Y6Ir59Oo7eAUUx-1">
          <mxGeometry width="50" height="50" relative="1" as="geometry">
            <mxPoint x="475" y="260" as="sourcePoint" />
            <mxPoint x="525" y="210" as="targetPoint" />
          </mxGeometry>
        </mxCell>
        <mxCell id="wQJye9Y6Ir59Oo7eAUUx-52" value="" style="endArrow=none;html=1;rounded=0;exitX=0;exitY=0.5;exitDx=0;exitDy=0;entryX=1;entryY=0;entryDx=0;entryDy=0;" edge="1" parent="1" source="wQJye9Y6Ir59Oo7eAUUx-9" target="wQJye9Y6Ir59Oo7eAUUx-1">
          <mxGeometry width="50" height="50" relative="1" as="geometry">
            <mxPoint x="475" y="260" as="sourcePoint" />
            <mxPoint x="525" y="210" as="targetPoint" />
          </mxGeometry>
        </mxCell>
        <mxCell id="wQJye9Y6Ir59Oo7eAUUx-53" value="" style="endArrow=none;html=1;rounded=0;exitX=0;exitY=0.5;exitDx=0;exitDy=0;entryX=1;entryY=0.5;entryDx=0;entryDy=0;" edge="1" parent="1" source="wQJye9Y6Ir59Oo7eAUUx-8" target="wQJye9Y6Ir59Oo7eAUUx-1">
          <mxGeometry width="50" height="50" relative="1" as="geometry">
            <mxPoint x="475" y="260" as="sourcePoint" />
            <mxPoint x="525" y="210" as="targetPoint" />
          </mxGeometry>
        </mxCell>
        <mxCell id="wQJye9Y6Ir59Oo7eAUUx-55" value="Tiene" style="shape=rhombus;perimeter=rhombusPerimeter;whiteSpace=wrap;html=1;align=center;" vertex="1" parent="1">
          <mxGeometry x="320" y="100" width="80" height="40" as="geometry" />
        </mxCell>
        <mxCell id="wQJye9Y6Ir59Oo7eAUUx-56" value="" style="endArrow=none;html=1;rounded=0;exitX=0;exitY=0.5;exitDx=0;exitDy=0;entryX=1;entryY=0.5;entryDx=0;entryDy=0;" edge="1" parent="1" source="wQJye9Y6Ir59Oo7eAUUx-1" target="wQJye9Y6Ir59Oo7eAUUx-55">
          <mxGeometry width="50" height="50" relative="1" as="geometry">
            <mxPoint x="410" y="290" as="sourcePoint" />
            <mxPoint x="460" y="240" as="targetPoint" />
          </mxGeometry>
        </mxCell>
        <mxCell id="wQJye9Y6Ir59Oo7eAUUx-58" value="(1,1)" style="edgeLabel;html=1;align=center;verticalAlign=middle;resizable=0;points=[];" vertex="1" connectable="0" parent="wQJye9Y6Ir59Oo7eAUUx-56">
          <mxGeometry x="-0.0667" y="2" relative="1" as="geometry">
            <mxPoint x="19" y="7" as="offset" />
          </mxGeometry>
        </mxCell>
        <mxCell id="wQJye9Y6Ir59Oo7eAUUx-57" value="" style="endArrow=classic;html=1;rounded=0;exitX=0;exitY=0.5;exitDx=0;exitDy=0;entryX=1;entryY=0.5;entryDx=0;entryDy=0;" edge="1" parent="1" source="wQJye9Y6Ir59Oo7eAUUx-55" target="wQJye9Y6Ir59Oo7eAUUx-3">
          <mxGeometry width="50" height="50" relative="1" as="geometry">
            <mxPoint x="410" y="290" as="sourcePoint" />
            <mxPoint x="460" y="240" as="targetPoint" />
          </mxGeometry>
        </mxCell>
        <mxCell id="wQJye9Y6Ir59Oo7eAUUx-59" value="(1,*)" style="edgeLabel;html=1;align=center;verticalAlign=middle;resizable=0;points=[];" vertex="1" connectable="0" parent="wQJye9Y6Ir59Oo7eAUUx-57">
          <mxGeometry x="0.3341" y="5" relative="1" as="geometry">
            <mxPoint x="-15" y="-13" as="offset" />
          </mxGeometry>
        </mxCell>
        <mxCell id="wQJye9Y6Ir59Oo7eAUUx-65" value="Trabaja" style="shape=rhombus;perimeter=rhombusPerimeter;whiteSpace=wrap;html=1;align=center;" vertex="1" parent="1">
          <mxGeometry x="505" y="200" width="80" height="40" as="geometry" />
        </mxCell>
        <mxCell id="wQJye9Y6Ir59Oo7eAUUx-66" value="" style="endArrow=none;html=1;rounded=0;exitX=0.5;exitY=0;exitDx=0;exitDy=0;entryX=0.5;entryY=1;entryDx=0;entryDy=0;" edge="1" parent="1" source="wQJye9Y6Ir59Oo7eAUUx-2" target="wQJye9Y6Ir59Oo7eAUUx-65">
          <mxGeometry width="50" height="50" relative="1" as="geometry">
            <mxPoint x="490" y="230" as="sourcePoint" />
            <mxPoint x="540" y="180" as="targetPoint" />
          </mxGeometry>
        </mxCell>
        <mxCell id="wQJye9Y6Ir59Oo7eAUUx-68" value="(1,*)" style="edgeLabel;html=1;align=center;verticalAlign=middle;resizable=0;points=[];" vertex="1" connectable="0" parent="wQJye9Y6Ir59Oo7eAUUx-66">
          <mxGeometry y="2" relative="1" as="geometry">
            <mxPoint x="-10" y="10" as="offset" />
          </mxGeometry>
        </mxCell>
        <mxCell id="wQJye9Y6Ir59Oo7eAUUx-67" value="" style="endArrow=classic;html=1;rounded=0;exitX=0.5;exitY=0;exitDx=0;exitDy=0;entryX=0.63;entryY=1.025;entryDx=0;entryDy=0;entryPerimeter=0;" edge="1" parent="1" source="wQJye9Y6Ir59Oo7eAUUx-65" target="wQJye9Y6Ir59Oo7eAUUx-1">
          <mxGeometry width="50" height="50" relative="1" as="geometry">
            <mxPoint x="490" y="230" as="sourcePoint" />
            <mxPoint x="540" y="180" as="targetPoint" />
          </mxGeometry>
        </mxCell>
        <mxCell id="wQJye9Y6Ir59Oo7eAUUx-69" value="(1,1)" style="edgeLabel;html=1;align=center;verticalAlign=middle;resizable=0;points=[];" vertex="1" connectable="0" parent="wQJye9Y6Ir59Oo7eAUUx-67">
          <mxGeometry x="0.2193" relative="1" as="geometry">
            <mxPoint x="14" y="-6" as="offset" />
          </mxGeometry>
        </mxCell>
        <mxCell id="wQJye9Y6Ir59Oo7eAUUx-70" value="Trabaja" style="shape=rhombus;perimeter=rhombusPerimeter;whiteSpace=wrap;html=1;align=center;" vertex="1" parent="1">
          <mxGeometry x="400" y="230" width="80" height="40" as="geometry" />
        </mxCell>
        <mxCell id="wQJye9Y6Ir59Oo7eAUUx-71" value="" style="endArrow=none;html=1;rounded=0;exitX=0.5;exitY=1;exitDx=0;exitDy=0;" edge="1" parent="1" source="wQJye9Y6Ir59Oo7eAUUx-1" target="wQJye9Y6Ir59Oo7eAUUx-70">
          <mxGeometry width="50" height="50" relative="1" as="geometry">
            <mxPoint x="410" y="340" as="sourcePoint" />
            <mxPoint x="460" y="290" as="targetPoint" />
          </mxGeometry>
        </mxCell>
        <mxCell id="wQJye9Y6Ir59Oo7eAUUx-75" value="(1,*)" style="edgeLabel;html=1;align=center;verticalAlign=middle;resizable=0;points=[];" vertex="1" connectable="0" parent="wQJye9Y6Ir59Oo7eAUUx-71">
          <mxGeometry x="-0.0268" y="2" relative="1" as="geometry">
            <mxPoint x="5" y="-10" as="offset" />
          </mxGeometry>
        </mxCell>
        <mxCell id="wQJye9Y6Ir59Oo7eAUUx-72" value="" style="endArrow=classic;html=1;rounded=0;entryX=0.25;entryY=0;entryDx=0;entryDy=0;exitX=0.5;exitY=1;exitDx=0;exitDy=0;" edge="1" parent="1" source="wQJye9Y6Ir59Oo7eAUUx-70" target="wQJye9Y6Ir59Oo7eAUUx-5">
          <mxGeometry width="50" height="50" relative="1" as="geometry">
            <mxPoint x="410" y="340" as="sourcePoint" />
            <mxPoint x="460" y="290" as="targetPoint" />
          </mxGeometry>
        </mxCell>
        <mxCell id="wQJye9Y6Ir59Oo7eAUUx-74" value="(1,*)" style="edgeLabel;html=1;align=center;verticalAlign=middle;resizable=0;points=[];" vertex="1" connectable="0" parent="wQJye9Y6Ir59Oo7eAUUx-72">
          <mxGeometry x="0.6142" relative="1" as="geometry">
            <mxPoint y="-1" as="offset" />
          </mxGeometry>
        </mxCell>
        <mxCell id="wQJye9Y6Ir59Oo7eAUUx-76" value="Fecha" style="ellipse;whiteSpace=wrap;html=1;align=center;" vertex="1" parent="1">
          <mxGeometry x="280" y="250" width="100" height="40" as="geometry" />
        </mxCell>
        <mxCell id="wQJye9Y6Ir59Oo7eAUUx-77" value="Descripcion" style="ellipse;whiteSpace=wrap;html=1;align=center;" vertex="1" parent="1">
          <mxGeometry x="280" y="190" width="100" height="40" as="geometry" />
        </mxCell>
        <mxCell id="wQJye9Y6Ir59Oo7eAUUx-78" value="" style="endArrow=none;html=1;rounded=0;exitX=1;exitY=0.5;exitDx=0;exitDy=0;entryX=0;entryY=0;entryDx=0;entryDy=0;" edge="1" parent="1" source="wQJye9Y6Ir59Oo7eAUUx-77" target="wQJye9Y6Ir59Oo7eAUUx-70">
          <mxGeometry width="50" height="50" relative="1" as="geometry">
            <mxPoint x="410" y="340" as="sourcePoint" />
            <mxPoint x="460" y="290" as="targetPoint" />
          </mxGeometry>
        </mxCell>
        <mxCell id="wQJye9Y6Ir59Oo7eAUUx-80" value="" style="endArrow=none;html=1;rounded=0;exitX=1;exitY=0.5;exitDx=0;exitDy=0;entryX=0;entryY=1;entryDx=0;entryDy=0;" edge="1" parent="1" source="wQJye9Y6Ir59Oo7eAUUx-76" target="wQJye9Y6Ir59Oo7eAUUx-70">
          <mxGeometry width="50" height="50" relative="1" as="geometry">
            <mxPoint x="410" y="340" as="sourcePoint" />
            <mxPoint x="460" y="290" as="targetPoint" />
          </mxGeometry>
        </mxCell>
        <mxCell id="wQJye9Y6Ir59Oo7eAUUx-81" value="Tiene" style="shape=rhombus;perimeter=rhombusPerimeter;whiteSpace=wrap;html=1;align=center;" vertex="1" parent="1">
          <mxGeometry x="310" y="350" width="80" height="40" as="geometry" />
        </mxCell>
        <mxCell id="wQJye9Y6Ir59Oo7eAUUx-82" value="" style="endArrow=none;html=1;rounded=0;exitX=0;exitY=1;exitDx=0;exitDy=0;" edge="1" parent="1" source="wQJye9Y6Ir59Oo7eAUUx-2" target="wQJye9Y6Ir59Oo7eAUUx-81">
          <mxGeometry width="50" height="50" relative="1" as="geometry">
            <mxPoint x="410" y="340" as="sourcePoint" />
            <mxPoint x="460" y="290" as="targetPoint" />
          </mxGeometry>
        </mxCell>
        <mxCell id="wQJye9Y6Ir59Oo7eAUUx-89" value="(1,*)" style="edgeLabel;html=1;align=center;verticalAlign=middle;resizable=0;points=[];" vertex="1" connectable="0" parent="wQJye9Y6Ir59Oo7eAUUx-82">
          <mxGeometry x="-0.7145" y="-2" relative="1" as="geometry">
            <mxPoint x="15" y="9" as="offset" />
          </mxGeometry>
        </mxCell>
        <mxCell id="wQJye9Y6Ir59Oo7eAUUx-83" value="" style="endArrow=classic;html=1;rounded=0;exitX=0;exitY=0.5;exitDx=0;exitDy=0;entryX=1;entryY=0;entryDx=0;entryDy=0;" edge="1" parent="1" source="wQJye9Y6Ir59Oo7eAUUx-81" target="wQJye9Y6Ir59Oo7eAUUx-4">
          <mxGeometry width="50" height="50" relative="1" as="geometry">
            <mxPoint x="410" y="340" as="sourcePoint" />
            <mxPoint x="460" y="290" as="targetPoint" />
          </mxGeometry>
        </mxCell>
        <mxCell id="wQJye9Y6Ir59Oo7eAUUx-91" value="(1,*)" style="edgeLabel;html=1;align=center;verticalAlign=middle;resizable=0;points=[];" vertex="1" connectable="0" parent="wQJye9Y6Ir59Oo7eAUUx-83">
          <mxGeometry x="0.3233" y="1" relative="1" as="geometry">
            <mxPoint x="-18" y="12" as="offset" />
          </mxGeometry>
        </mxCell>
        <mxCell id="wQJye9Y6Ir59Oo7eAUUx-87" value="Fecha" style="ellipse;whiteSpace=wrap;html=1;align=center;" vertex="1" parent="1">
          <mxGeometry x="290" y="430" width="100" height="40" as="geometry" />
        </mxCell>
        <mxCell id="wQJye9Y6Ir59Oo7eAUUx-93" value="" style="endArrow=none;html=1;rounded=0;exitX=0.5;exitY=0;exitDx=0;exitDy=0;entryX=0.67;entryY=1.025;entryDx=0;entryDy=0;entryPerimeter=0;" edge="1" parent="1" source="wQJye9Y6Ir59Oo7eAUUx-24" target="wQJye9Y6Ir59Oo7eAUUx-4">
          <mxGeometry width="50" height="50" relative="1" as="geometry">
            <mxPoint x="190" y="410" as="sourcePoint" />
            <mxPoint x="240" y="360" as="targetPoint" />
          </mxGeometry>
        </mxCell>
        <mxCell id="wQJye9Y6Ir59Oo7eAUUx-95" value="" style="endArrow=none;html=1;rounded=0;exitX=0.5;exitY=0;exitDx=0;exitDy=0;entryX=0.5;entryY=1;entryDx=0;entryDy=0;" edge="1" parent="1" source="wQJye9Y6Ir59Oo7eAUUx-87" target="wQJye9Y6Ir59Oo7eAUUx-81">
          <mxGeometry width="50" height="50" relative="1" as="geometry">
            <mxPoint x="200" y="310" as="sourcePoint" />
            <mxPoint x="-30" y="320" as="targetPoint" />
          </mxGeometry>
        </mxCell>
        <mxCell id="wQJye9Y6Ir59Oo7eAUUx-98" value="" style="endArrow=classic;html=1;rounded=0;exitX=0;exitY=0.5;exitDx=0;exitDy=0;entryX=1;entryY=1;entryDx=0;entryDy=0;" edge="1" parent="1" source="wQJye9Y6Ir59Oo7eAUUx-81" target="wQJye9Y6Ir59Oo7eAUUx-6">
          <mxGeometry width="50" height="50" relative="1" as="geometry">
            <mxPoint x="170" y="260" as="sourcePoint" />
            <mxPoint x="250" y="260" as="targetPoint" />
          </mxGeometry>
        </mxCell>
        <mxCell id="wQJye9Y6Ir59Oo7eAUUx-100" value="(1,1)" style="edgeLabel;html=1;align=center;verticalAlign=middle;resizable=0;points=[];" vertex="1" connectable="0" parent="wQJye9Y6Ir59Oo7eAUUx-98">
          <mxGeometry x="0.3248" y="-2" relative="1" as="geometry">
            <mxPoint x="-61" y="-18" as="offset" />
          </mxGeometry>
        </mxCell>
        <mxCell id="wQJye9Y6Ir59Oo7eAUUx-102" value="Descripcion" style="ellipse;whiteSpace=wrap;html=1;align=center;" vertex="1" parent="1">
          <mxGeometry x="375.36" y="400" width="100" height="40" as="geometry" />
        </mxCell>
        <mxCell id="wQJye9Y6Ir59Oo7eAUUx-103" value="" style="endArrow=none;html=1;rounded=0;exitX=0;exitY=0;exitDx=0;exitDy=0;entryX=1;entryY=1;entryDx=0;entryDy=0;" edge="1" parent="1" source="wQJye9Y6Ir59Oo7eAUUx-102" target="wQJye9Y6Ir59Oo7eAUUx-81">
          <mxGeometry width="50" height="50" relative="1" as="geometry">
            <mxPoint x="260" y="360" as="sourcePoint" />
            <mxPoint x="310" y="310" as="targetPoint" />
          </mxGeometry>
        </mxCell>
      </root>
    </mxGraphModel>
  </diagram>
</mxfile>
